<svg xmlns="http://www.w3.org/2000/svg" viewBox="0 0 587.9 587.9"><path d="M471.5 116.4C424.1 69 361 42.8 294 42.8c-67.1 0-130.1 26.1-177.6 73.5S42.8 226.9 42.8 294s26.1 130.1 73.5 177.6 110.5 73.5 177.6 73.5S424 519 471.5 471.6 545.1 361 545.1 294c0-67.1-26.1-130.2-73.6-177.6zM294 544.6C155.5 544.6 43.3 432.4 43.3 294 43.3 155.5 155.5 43.3 294 43.3c138.4 0 250.6 112.2 250.6 250.6 0 138.5-112.2 250.7-250.6 250.7zm177.5-428.2C424.1 69 361 42.8 294 42.8c-67.1 0-130.1 26.1-177.6 73.5S42.8 226.9 42.8 294s26.1 130.1 73.5 177.6 110.5 73.5 177.6 73.5S424 519 471.5 471.6 545.1 361 545.1 294c0-67.1-26.1-130.2-73.6-177.6zM294 544.6C155.5 544.6 43.3 432.4 43.3 294 43.3 155.5 155.5 43.3 294 43.3c138.4 0 250.6 112.2 250.6 250.6 0 138.5-112.2 250.7-250.6 250.7zm177.5-428.2C424.1 69 361 42.8 294 42.8c-67.1 0-130.1 26.1-177.6 73.5S42.8 226.9 42.8 294s26.1 130.1 73.5 177.6 110.5 73.5 177.6 73.5S424 519 471.5 471.6 545.1 361 545.1 294c0-67.1-26.1-130.2-73.6-177.6zM294 544.6C155.5 544.6 43.3 432.4 43.3 294 43.3 155.5 155.5 43.3 294 43.3c138.4 0 250.6 112.2 250.6 250.6 0 138.5-112.2 250.7-250.6 250.7zm177.5-428.2C424.1 69 361 42.8 294 42.8c-67.1 0-130.1 26.1-177.6 73.5S42.8 226.9 42.8 294s26.1 130.1 73.5 177.6 110.5 73.5 177.6 73.5S424 519 471.5 471.6 545.1 361 545.1 294c0-67.1-26.1-130.2-73.6-177.6zM294 544.6C155.5 544.6 43.3 432.4 43.3 294 43.3 155.5 155.5 43.3 294 43.3c138.4 0 250.6 112.2 250.6 250.6 0 138.5-112.2 250.7-250.6 250.7zm270.3-364.9c-14.8-34.9-35.9-66.3-62.9-93.3s-58.3-48.1-93.3-62.9C372 8.3 333.5.5 294 .5c-39.6 0-78 7.8-114.2 23.1-34.9 14.8-66.3 35.9-93.3 62.9-26.9 26.9-48.1 58.3-62.9 93.3C8.3 215.9.5 254.4.5 294c0 39.6 7.8 78 23.1 114.2 14.8 35 35.9 66.3 62.9 93.3s58.3 48.1 93.3 62.9c36.2 15.3 74.6 23.1 114.2 23.1 39.6 0 78-7.8 114.2-23.1 35-14.8 66.3-35.9 93.3-62.9s48.1-58.3 62.9-93.3c15.3-36.2 23.1-74.6 23.1-114.2-.1-39.6-7.8-78.1-23.2-114.3zm-.4 228.3c-14.8 34.9-35.9 66.2-62.8 93.1-26.9 26.9-58.2 48-93.1 62.8-36.1 15.3-74.5 23-114 23s-77.9-7.8-114.1-23c-34.9-14.8-66.2-35.9-93.1-62.8-26.9-26.9-48-58.2-62.8-93.1C8.8 371.8 1 333.5 1 294s7.8-77.9 23-114.1c14.8-34.9 35.9-66.2 62.8-93.1 26.9-26.9 58.2-48 93.1-62.8C216.1 8.8 254.4 1 294 1c39.5 0 77.9 7.8 114 23 34.9 14.8 66.2 35.9 93.1 62.8 26.9 26.9 48 58.2 62.8 93.1 15.3 36.2 23 74.5 23 114.1 0 39.5-7.7 77.8-23 114zM294 42.8c-67.1 0-130.1 26.1-177.6 73.5S42.8 226.9 42.8 294s26.1 130.1 73.5 177.6 110.5 73.5 177.6 73.5S424 519 471.5 471.6 545.1 361 545.1 294c0-67.1-26.1-130.1-73.5-177.6S361 42.8 294 42.8zm0 501.8C155.5 544.6 43.3 432.4 43.3 294 43.3 155.5 155.5 43.3 294 43.3c138.4 0 250.6 112.2 250.6 250.6 0 138.5-112.2 250.7-250.6 250.7zm177.5-428.2C424.1 69 361 42.8 294 42.8c-67.1 0-130.1 26.1-177.6 73.5S42.8 226.9 42.8 294s26.1 130.1 73.5 177.6 110.5 73.5 177.6 73.5S424 519 471.5 471.6 545.1 361 545.1 294c0-67.1-26.1-130.2-73.6-177.6zM294 544.6C155.5 544.6 43.3 432.4 43.3 294 43.3 155.5 155.5 43.3 294 43.3c138.4 0 250.6 112.2 250.6 250.6 0 138.5-112.2 250.7-250.6 250.7zm177.5-428.2C424.1 69 361 42.8 294 42.8c-67.1 0-130.1 26.1-177.6 73.5S42.8 226.9 42.8 294s26.1 130.1 73.5 177.6 110.5 73.5 177.6 73.5S424 519 471.5 471.6 545.1 361 545.1 294c0-67.1-26.1-130.2-73.6-177.6zM294 544.6C155.5 544.6 43.3 432.4 43.3 294 43.3 155.5 155.5 43.3 294 43.3c138.4 0 250.6 112.2 250.6 250.6 0 138.5-112.2 250.7-250.6 250.7z"/><path d="M471.5 116.4C424.1 69 361 42.8 294 42.8c-67.1 0-130.1 26.1-177.6 73.5S42.8 226.9 42.8 294s26.1 130.1 73.5 177.6 110.5 73.5 177.6 73.5S424 519 471.5 471.6 545.1 361 545.1 294c0-67.1-26.1-130.2-73.6-177.6zM294 544.1c-66.8 0-129.6-26-176.9-73.3-47.2-47.2-73.3-110-73.3-176.8 0-66.8 26-129.6 73.3-176.9C164.3 69.9 227.2 43.8 294 43.8c66.8 0 129.6 26 176.9 73.3 47.2 47.2 73.3 110.1 73.3 176.9 0 66.8-26 129.6-73.3 176.8S360.8 544.1 294 544.1zm177.5-427.7C424.1 69 361 42.8 294 42.8c-67.1 0-130.1 26.1-177.6 73.5S42.8 226.9 42.8 294s26.1 130.1 73.5 177.6 110.5 73.5 177.6 73.5S424 519 471.5 471.6 545.1 361 545.1 294c0-67.1-26.1-130.2-73.6-177.6zM294 544.1c-66.8 0-129.6-26-176.9-73.3-47.2-47.2-73.3-110-73.3-176.8 0-66.8 26-129.6 73.3-176.9C164.3 69.9 227.2 43.8 294 43.8c66.8 0 129.6 26 176.9 73.3 47.2 47.2 73.3 110.1 73.3 176.9 0 66.8-26 129.6-73.3 176.8S360.8 544.1 294 544.1zm177.5-427.7C424.1 69 361 42.8 294 42.8c-67.1 0-130.1 26.1-177.6 73.5S42.8 226.9 42.8 294s26.1 130.1 73.5 177.6 110.5 73.5 177.6 73.5S424 519 471.5 471.6 545.1 361 545.1 294c0-67.1-26.1-130.2-73.6-177.6zM294 544.1c-66.8 0-129.6-26-176.9-73.3-47.2-47.2-73.3-110-73.3-176.8 0-66.8 26-129.6 73.3-176.9C164.3 69.9 227.2 43.8 294 43.8c66.8 0 129.6 26 176.9 73.3 47.2 47.2 73.3 110.1 73.3 176.9 0 66.8-26 129.6-73.3 176.8S360.8 544.1 294 544.1zm177.5-427.7C424.1 69 361 42.8 294 42.8c-67.1 0-130.1 26.1-177.6 73.5S42.8 226.9 42.8 294s26.1 130.1 73.5 177.6 110.5 73.5 177.6 73.5S424 519 471.5 471.6 545.1 361 545.1 294c0-67.1-26.1-130.2-73.6-177.6zM294 544.1c-66.8 0-129.6-26-176.9-73.3-47.2-47.2-73.3-110-73.3-176.8 0-66.8 26-129.6 73.3-176.9C164.3 69.9 227.2 43.8 294 43.8c66.8 0 129.6 26 176.9 73.3 47.2 47.2 73.3 110.1 73.3 176.9 0 66.8-26 129.6-73.3 176.8S360.8 544.1 294 544.1zm270.8-364.6c-14.8-35-36-66.4-63-93.4s-58.4-48.2-93.4-63C372.1 7.8 333.6 0 294 0c-39.7 0-78.2 7.8-114.4 23.1-35 14.8-66.4 36-93.4 63s-48.2 58.4-63 93.4C7.8 215.8 0 254.3 0 294s7.8 78.2 23.1 114.4c14.8 35 36 66.4 63 93.4s58.4 48.2 93.4 63c36.3 15.3 74.8 23.1 114.4 23.1 39.7 0 78.2-7.8 114.4-23.1 35-14.8 66.4-36 93.4-63s48.2-58.4 63-93.4c15.3-36.3 23.1-74.8 23.1-114.4.1-39.7-7.7-78.2-23-114.5zM294 586.9c-39.5 0-77.9-7.8-114.1-23-34.9-14.8-66.2-35.9-93.1-62.8-26.9-26.9-48-58.2-62.8-93.1C8.8 371.8 1 333.5 1 294s7.8-77.9 23-114.1c14.8-34.9 35.9-66.2 62.8-93.1 26.9-26.9 58.2-48 93.1-62.8C216.1 8.8 254.4 1 294 1c39.5 0 77.9 7.8 114 23 34.9 14.8 66.2 35.9 93.1 62.8 26.9 26.9 48 58.2 62.8 93.1 15.3 36.2 23 74.5 23 114.1 0 39.5-7.8 77.9-23 114-14.8 34.9-35.9 66.2-62.8 93.1-26.9 26.9-58.2 48-93.1 62.8-36.1 15.3-74.5 23-114 23zm177.5-470.5C424.1 69 361 42.8 294 42.8c-67.1 0-130.1 26.1-177.6 73.5S42.8 226.9 42.8 294s26.1 130.1 73.5 177.6 110.5 73.5 177.6 73.5S424 519 471.5 471.6 545.1 361 545.1 294c0-67.1-26.1-130.2-73.6-177.6zM294 544.1c-66.8 0-129.6-26-176.9-73.3-47.2-47.2-73.3-110-73.3-176.8 0-66.8 26-129.6 73.3-176.9C164.3 69.9 227.2 43.8 294 43.8c66.8 0 129.6 26 176.9 73.3 47.2 47.2 73.3 110.1 73.3 176.9 0 66.8-26 129.6-73.3 176.8S360.8 544.1 294 544.1zm177.5-427.7C424.1 69 361 42.8 294 42.8c-67.1 0-130.1 26.1-177.6 73.5S42.8 226.9 42.8 294s26.1 130.1 73.5 177.6 110.5 73.5 177.6 73.5S424 519 471.5 471.6 545.1 361 545.1 294c0-67.1-26.1-130.2-73.6-177.6zM294 544.1c-66.8 0-129.6-26-176.9-73.3-47.2-47.2-73.3-110-73.3-176.8 0-66.8 26-129.6 73.3-176.9C164.3 69.9 227.2 43.8 294 43.8c66.8 0 129.6 26 176.9 73.3 47.2 47.2 73.3 110.1 73.3 176.9 0 66.8-26 129.6-73.3 176.8S360.8 544.1 294 544.1zm177.5-427.7C424.1 69 361 42.8 294 42.8c-67.1 0-130.1 26.1-177.6 73.5S42.8 226.9 42.8 294s26.1 130.1 73.5 177.6 110.5 73.5 177.6 73.5S424 519 471.5 471.6 545.1 361 545.1 294c0-67.1-26.1-130.2-73.6-177.6zM294 544.1c-66.8 0-129.6-26-176.9-73.3-47.2-47.2-73.3-110-73.3-176.8 0-66.8 26-129.6 73.3-176.9C164.3 69.9 227.2 43.8 294 43.8c66.8 0 129.6 26 176.9 73.3 47.2 47.2 73.3 110.1 73.3 176.9 0 66.8-26 129.6-73.3 176.8S360.8 544.1 294 544.1zm177.5-427.7C424.1 69 361 42.8 294 42.8c-67.1 0-130.1 26.1-177.6 73.5S42.8 226.9 42.8 294s26.1 130.1 73.5 177.6 110.5 73.5 177.6 73.5S424 519 471.5 471.6 545.1 361 545.1 294c0-67.1-26.1-130.2-73.6-177.6zM294 544.1c-66.8 0-129.6-26-176.9-73.3-47.2-47.2-73.3-110-73.3-176.8 0-66.8 26-129.6 73.3-176.9C164.3 69.9 227.2 43.8 294 43.8c66.8 0 129.6 26 176.9 73.3 47.2 47.2 73.3 110.1 73.3 176.9 0 66.8-26 129.6-73.3 176.8S360.8 544.1 294 544.1zm177.5-427.7C424.1 69 361 42.8 294 42.8c-67.1 0-130.1 26.1-177.6 73.5S42.8 226.9 42.8 294s26.1 130.1 73.5 177.6 110.5 73.5 177.6 73.5S424 519 471.5 471.6 545.1 361 545.1 294c0-67.1-26.1-130.2-73.6-177.6zM294 544.1c-66.8 0-129.6-26-176.9-73.3-47.2-47.2-73.3-110-73.3-176.8 0-66.8 26-129.6 73.3-176.9C164.3 69.9 227.2 43.8 294 43.8c66.8 0 129.6 26 176.9 73.3 47.2 47.2 73.3 110.1 73.3 176.9 0 66.8-26 129.6-73.3 176.8S360.8 544.1 294 544.1z"/><path d="M563.9 179.9c-14.8-34.9-35.9-66.2-62.8-93.1-26.9-26.9-58.2-48-93.1-62.8C371.9 8.8 333.5 1 294 1s-77.9 7.8-114 23c-35 14.8-66.3 35.9-93.2 62.8-26.9 26.9-48 58.2-62.8 93.1C8.8 216.1 1 254.4 1 294c0 39.5 7.8 77.9 23 114 14.8 34.9 35.9 66.2 62.8 93.1 26.9 26.9 58.2 48 93.1 62.8 36.1 15.3 74.5 23 114.1 23 39.5 0 77.9-7.8 114-23 34.9-14.8 66.2-35.9 93.1-62.8 26.9-26.9 48-58.2 62.8-93.1 15.3-36.2 23-74.5 23-114 0-39.6-7.7-77.9-23-114.1zm-92.4 291.6C424.1 519 361 545.1 294 545.1c-67.1 0-130.1-26.1-177.6-73.5S42.8 361 42.8 294c0-67.1 26.1-130.1 73.5-177.6S226.9 42.8 294 42.8s130.1 26.1 177.6 73.5 73.5 110.5 73.5 177.6-26.1 130.2-73.6 177.6z"/><path d="M324.2 294l78.8-78.8c8.4-8.4 8.4-21.9 0-30.3-8.4-8.4-21.9-8.4-30.3 0L294 263.7 215.3 185c-8.4-8.4-21.9-8.4-30.3 0-8.4 8.4-8.4 21.9 0 30.3l78.7 78.8-78.7 78.7c-8.4 8.4-8.4 21.9 0 30.3 4.2 4.2 9.7 6.3 15.2 6.3s11-2.1 15.1-6.3l78.7-78.7 78.8 78.7c4.2 4.2 9.7 6.3 15.1 6.3 5.5 0 11-2.1 15.1-6.3 8.4-8.4 8.4-21.9 0-30.3L324.2 294zm78.4 108.6c-4 4-9.2 6.1-14.8 6.1-5.6 0-10.8-2.2-14.8-6.1l-79-79.1-79.1 79.1c-4 4-9.2 6.1-14.8 6.1-5.6 0-10.8-2.2-14.8-6.1-4-4-6.1-9.2-6.1-14.8 0-5.6 2.2-10.8 6.1-14.8l79.1-79.1-79.1-79.1c-8.2-8.2-8.2-21.4 0-29.6 3.9-4 9.2-6.1 14.8-6.1 5.6 0 10.8 2.2 14.8 6.1l79.1 79.1 79.1-79.1c4-4 9.2-6.1 14.8-6.1 5.6 0 10.8 2.2 14.8 6.1 4 3.9 6.1 9.2 6.1 14.8 0 5.6-2.2 10.8-6.1 14.8L323.5 294l79.1 79.1c4 4 6.1 9.2 6.1 14.8.1 5.5-2.1 10.8-6.1 14.7z"/><path d="M403.3 372.3L325 294l78.4-78.4c4.1-4.1 6.4-9.7 6.4-15.5 0-5.9-2.3-11.4-6.4-15.5-4.1-4.1-9.6-6.4-15.5-6.4s-11.4 2.3-15.5 6.4L294 263l-78.4-78.4c-4.1-4.1-9.7-6.4-15.5-6.4-5.9 0-11.4 2.3-15.5 6.4-8.5 8.5-8.5 22.5 0 31L263 294l-78.4 78.4c-4.1 4.1-6.4 9.6-6.4 15.5s2.3 11.4 6.4 15.5c4.1 4.1 9.6 6.4 15.5 6.4 5.8 0 11.4-2.3 15.5-6.4L294 325l78.4 78.4c4.1 4.1 9.6 6.4 15.5 6.4s11.4-2.3 15.5-6.4c4.1-4.1 6.4-9.6 6.4-15.5s-2.3-11.4-6.5-15.6zm-15.5 36.5c-5.6 0-10.8-2.2-14.8-6.1l-79-79.2-79.1 79.1c-4 4-9.2 6.1-14.8 6.1-5.6 0-10.8-2.2-14.8-6.1-4-4-6.1-9.2-6.1-14.8 0-5.6 2.2-10.8 6.1-14.8l79.1-79.1-79.1-79.1c-8.2-8.2-8.2-21.4 0-29.6 3.9-4 9.2-6.1 14.8-6.1 5.6 0 10.8 2.2 14.8 6.1l79.1 79.1 79.1-79.1c4-4 9.2-6.1 14.8-6.1 5.6 0 10.8 2.2 14.8 6.1 4 3.9 6.1 9.2 6.1 14.8 0 5.6-2.2 10.8-6.1 14.8L323.5 294l79.1 79.1c4 4 6.1 9.2 6.1 14.8 0 5.6-2.2 10.8-6.1 14.8-3.9 3.9-9.2 6.1-14.8 6.1z"/><path d="M402.6 373c4 4 6.1 9.2 6.1 14.8 0 5.6-2.2 10.8-6.1 14.8-4 4-9.2 6.1-14.8 6.1-5.6 0-10.8-2.2-14.8-6.1l-79-79.1-79.1 79.1c-4 4-9.2 6.1-14.8 6.1-5.6 0-10.8-2.2-14.8-6.1-4-4-6.1-9.2-6.1-14.8 0-5.6 2.2-10.8 6.1-14.8l79.1-79.1-79.1-79.1c-8.2-8.2-8.2-21.4 0-29.6 3.9-4 9.2-6.1 14.8-6.1 5.6 0 10.8 2.2 14.8 6.1l79.1 79.1 79.1-79.1c4-4 9.2-6.1 14.8-6.1 5.6 0 10.8 2.2 14.8 6.1 4 3.9 6.1 9.2 6.1 14.8 0 5.6-2.2 10.8-6.1 14.8L323.5 294l79.1 79z"/></svg>